<svg xmlns="http://www.w3.org/2000/svg" width="960" height="540" viewBox="0 0 960 540" role="img" aria-label="AI Product Owner Knowledge System">
  <defs>
    <linearGradient id="panel" x1="0" x2="1" y1="0" y2="1">
      <stop offset="0" stop-color="#ffffff"/>
      <stop offset="1" stop-color="#eef3f7"/>
    </linearGradient>
    <filter id="shadow" x="-10%" y="-10%" width="120%" height="120%">
      <feDropShadow dx="0" dy="18" stdDeviation="18" flood-color="#17202a" flood-opacity="0.12"/>
    </filter>
  </defs>
  <rect width="960" height="540" fill="#f6f7fb"/>
  <rect x="34" y="34" width="892" height="472" rx="8" fill="url(#panel)" stroke="#d8dee8" filter="url(#shadow)"/>
  <text x="68" y="86" font-family="Arial, 'PingFang SC', sans-serif" font-size="28" font-weight="800" fill="#17202a">AI Product Owner Knowledge System</text>
  <text x="68" y="122" font-family="Arial, 'PingFang SC', sans-serif" font-size="16" fill="#667085">Scenario · Harness · Eval · Governance · Outcome</text>
  
  <g font-family="Arial, 'PingFang SC', sans-serif">
    <rect x="78" y="170" width="190" height="94" rx="8" fill="#0f766e" opacity="0.92"/>
    <text x="102" y="207" font-size="18" font-weight="800" fill="#fff">场景判断</text>
    <text x="102" y="235" font-size="13" fill="#d9f5f0">边界 · 价值 · 风险</text>
    <rect x="324" y="170" width="190" height="94" rx="8" fill="#2563eb" opacity="0.92"/>
    <text x="348" y="207" font-size="18" font-weight="800" fill="#fff">能力编排</text>
    <text x="348" y="235" font-size="13" fill="#dbeafe">Prompt · RAG · Agent</text>
    <rect x="570" y="170" width="190" height="94" rx="8" fill="#d97706" opacity="0.94"/>
    <text x="594" y="207" font-size="18" font-weight="800" fill="#fff">质量闭环</text>
    <text x="594" y="235" font-size="13" fill="#fff7ed">Eval · Trace · Review</text>
    <path d="M270 217 H318" stroke="#98a2b3" stroke-width="4"/>
    <path d="M516 217 H564" stroke="#98a2b3" stroke-width="4"/>
    <rect x="184" y="326" width="470" height="78" rx="8" fill="#17202a"/>
    <text x="224" y="358" font-size="18" font-weight="800" fill="#fff">AI Product Owner</text>
    <text x="224" y="386" font-size="14" fill="#cbd5e1">对业务结果、质量、安全和协作负责</text>
    <path d="M420 264 V318" stroke="#98a2b3" stroke-width="4"/>
  </g>

</svg>
