<svg xmlns="http://www.w3.org/2000/svg" width="960" height="540" viewBox="0 0 960 540" role="img" aria-label="AI 产品全貌">
  <defs>
    <linearGradient id="panel" x1="0" x2="1" y1="0" y2="1">
      <stop offset="0" stop-color="#ffffff"/>
      <stop offset="1" stop-color="#eef3f7"/>
    </linearGradient>
    <filter id="shadow" x="-10%" y="-10%" width="120%" height="120%">
      <feDropShadow dx="0" dy="18" stdDeviation="18" flood-color="#17202a" flood-opacity="0.12"/>
    </filter>
  </defs>
  <rect width="960" height="540" fill="#f6f7fb"/>
  <rect x="34" y="34" width="892" height="472" rx="8" fill="url(#panel)" stroke="#d8dee8" filter="url(#shadow)"/>
  <text x="68" y="86" font-family="Arial, 'PingFang SC', sans-serif" font-size="28" font-weight="800" fill="#17202a">AI 产品全貌</text>
  <text x="68" y="122" font-family="Arial, 'PingFang SC', sans-serif" font-size="16" fill="#667085">从业务问题到可运行系统</text>
  
  <g font-family="Arial, 'PingFang SC', sans-serif">
    <rect x="92" y="178" width="160" height="72" rx="8" fill="#e0f2fe" stroke="#2563eb"/>
    <text x="122" y="222" font-size="18" font-weight="800" fill="#17202a">业务场景</text>
    <rect x="312" y="178" width="160" height="72" rx="8" fill="#dcfce7" stroke="#0f766e"/>
    <text x="342" y="222" font-size="18" font-weight="800" fill="#17202a">AI 能力</text>
    <rect x="532" y="178" width="160" height="72" rx="8" fill="#fff7ed" stroke="#d97706"/>
    <text x="562" y="222" font-size="18" font-weight="800" fill="#17202a">产品流程</text>
    <rect x="312" y="322" width="160" height="72" rx="8" fill="#ffe4e6" stroke="#e11d48"/>
    <text x="342" y="366" font-size="18" font-weight="800" fill="#17202a">业务结果</text>
    <path d="M252 214 H312 M472 214 H532 M612 250 C612 330 472 358 472 358 M312 358 C220 350 172 292 172 250" fill="none" stroke="#98a2b3" stroke-width="4"/>
  </g>

</svg>
