<svg xmlns="http://www.w3.org/2000/svg" width="960" height="540" viewBox="0 0 960 540" role="img" aria-label="RAG 可信链路">
  <defs>
    <linearGradient id="panel" x1="0" x2="1" y1="0" y2="1">
      <stop offset="0" stop-color="#ffffff"/>
      <stop offset="1" stop-color="#eef3f7"/>
    </linearGradient>
    <filter id="shadow" x="-10%" y="-10%" width="120%" height="120%">
      <feDropShadow dx="0" dy="18" stdDeviation="18" flood-color="#17202a" flood-opacity="0.12"/>
    </filter>
  </defs>
  <rect width="960" height="540" fill="#f6f7fb"/>
  <rect x="34" y="34" width="892" height="472" rx="8" fill="url(#panel)" stroke="#d8dee8" filter="url(#shadow)"/>
  <text x="68" y="86" font-family="Arial, 'PingFang SC', sans-serif" font-size="28" font-weight="800" fill="#17202a">RAG 可信链路</text>
  <text x="68" y="122" font-family="Arial, 'PingFang SC', sans-serif" font-size="16" fill="#667085">召回、引用、拒答和验收共同决定质量下限</text>
  
  <g font-family="Arial, 'PingFang SC', sans-serif">
    <rect x="84" y="182" width="150" height="78" rx="8" fill="#dbeafe" stroke="#2563eb"/>
    <text x="116" y="226" font-size="18" font-weight="800" fill="#17202a">用户问题</text>
    <rect x="302" y="150" width="170" height="70" rx="8" fill="#ecfeff" stroke="#0f766e"/>
    <text x="340" y="191" font-size="17" font-weight="800" fill="#17202a">检索召回</text>
    <rect x="302" y="252" width="170" height="70" rx="8" fill="#fff7ed" stroke="#d97706"/>
    <text x="340" y="293" font-size="17" font-weight="800" fill="#17202a">证据引用</text>
    <rect x="548" y="182" width="170" height="78" rx="8" fill="#dcfce7" stroke="#0f766e"/>
    <text x="588" y="226" font-size="18" font-weight="800" fill="#17202a">可信回答</text>
    <rect x="548" y="334" width="170" height="58" rx="8" fill="#ffe4e6" stroke="#e11d48"/>
    <text x="595" y="369" font-size="16" font-weight="800" fill="#17202a">拒答/澄清</text>
    <path d="M234 221 H302 M472 185 C515 185 515 221 548 221 M472 287 C520 287 520 241 548 241 M633 260 V334" fill="none" stroke="#98a2b3" stroke-width="4"/>
  </g>

</svg>
