<svg xmlns="http://www.w3.org/2000/svg" width="960" height="540" viewBox="0 0 960 540" role="img" aria-label="成长路线">
  <defs>
    <linearGradient id="panel" x1="0" x2="1" y1="0" y2="1">
      <stop offset="0" stop-color="#ffffff"/>
      <stop offset="1" stop-color="#eef3f7"/>
    </linearGradient>
    <filter id="shadow" x="-10%" y="-10%" width="120%" height="120%">
      <feDropShadow dx="0" dy="18" stdDeviation="18" flood-color="#17202a" flood-opacity="0.12"/>
    </filter>
  </defs>
  <rect width="960" height="540" fill="#f6f7fb"/>
  <rect x="34" y="34" width="892" height="472" rx="8" fill="url(#panel)" stroke="#d8dee8" filter="url(#shadow)"/>
  <text x="68" y="86" font-family="Arial, 'PingFang SC', sans-serif" font-size="28" font-weight="800" fill="#17202a">成长路线</text>
  <text x="68" y="122" font-family="Arial, 'PingFang SC', sans-serif" font-size="16" fill="#667085">从会解释，到能交付，再到能制定标准</text>
  
  <g font-family="Arial, 'PingFang SC', sans-serif">
    <path d="M118 378 C220 286 294 328 388 246 S580 178 700 134" fill="none" stroke="#17202a" stroke-width="6"/>
    <rect x="92" y="342" width="150" height="68" rx="8" fill="#dbeafe" stroke="#2563eb"/>
    <text x="126" y="382" font-size="16" font-weight="800" fill="#17202a">Feature PM</text>
    <rect x="300" y="250" width="170" height="68" rx="8" fill="#dcfce7" stroke="#0f766e"/>
    <text x="330" y="290" font-size="16" font-weight="800" fill="#17202a">Workflow PM</text>
    <rect x="514" y="164" width="170" height="68" rx="8" fill="#fff7ed" stroke="#d97706"/>
    <text x="548" y="204" font-size="16" font-weight="800" fill="#17202a">AI Owner</text>
    <rect x="578" y="324" width="150" height="58" rx="8" fill="#ffe4e6" stroke="#e11d48"/>
    <text x="610" y="359" font-size="15" font-weight="800" fill="#17202a">作品集</text>
  </g>

</svg>
